# xmcd
#
# Track frame offsets: 
#        183
#        13118
#        24563
#        38310
#        53208
#        67883
#        89185
#        102338
#        116023
#        126368
#        141223
#        164838
#        180363
#        199608
#        217388
#        232210
#        245603
#        260873
#
# Disc length: 3781 seconds
#
# Revision: 4
# Processed by: cddbd v1.5.2PL0 Copyright (c) Steve Scherf et al.
# Submitted via: ExactAudioCopy v0.99pb5
#
DISCID=150ec312
DTITLE=Various Artist - Die deutschen Single-Hits der 70er Jahre - CD 1
DYEAR=1996
DGENRE=Schlager
TTITLE0=Chris Roberts - Ich bin verliebt in die Liebe
TTITLE1=Renate Kern - Alle Blumen brauchen Sonne
TTITLE2=Karel Gott - Einmal um die ganze Welt
TTITLE3=Daliah Lavi - Oh, wann kommst du ?
TTITLE4=Bata Illic - Candida
TTITLE5=Tony - Mädchen mit roten Haaren
TTITLE6=Lena Valaitis - Ob es so oder so oder anders kommt
TTITLE7=Travellers - Der Pleitegeier
TTITLE8=Hajo - Mademoiselle Ninette
TTITLE9=Wencke Myhre - Er hat ein knallrotes Gummiboot
TTITLE10=Gunnar Welz - Manuela
TTITLE11=Roy Black and Anita - Schön ist es auf der Welt zu sein
TTITLE12=Vicky Leandros - Ich bin
TTITLE13=Ulli Martin - Monika
TTITLE14=Tony Marshall - Schöne Maid
TTITLE15=Siw Malmkvist - Liebe wie im Rosengarten
TTITLE16=Karel Gott - Schicksalsmelodie
TTITLE17=Ricky Shayne - Mamy Blue
EXTD=
EXTT0=
EXTT1=
EXTT2=
EXTT3=
EXTT4=
EXTT5=
EXTT6=
EXTT7=
EXTT8=
EXTT9=
EXTT10=
EXTT11=
EXTT12=
EXTT13=
EXTT14=
EXTT15=
EXTT16=
EXTT17=
PLAYORDER=
